<?xml version="1.0" encoding="UTF-8"?>
<svg version="1.1" xmlns="http://www.w3.org/2000/svg" width="863" height="720">
<path d="M0 0 C34.37004125 -0.09182014 68.7400542 -0.16217238 103.11019188 -0.20426132 C107.18006953 -0.20926335 111.24994693 -0.21444072 115.31982422 -0.21972656 C116.53503779 -0.22130043 116.53503779 -0.22130043 117.77480114 -0.22290608 C130.84364167 -0.24024878 143.91241087 -0.27175211 156.98120928 -0.30861118 C170.41942818 -0.34619234 183.85761007 -0.36827187 197.29587936 -0.37635398 C205.56902759 -0.38180642 213.84197411 -0.39894258 222.11506015 -0.43166587 C227.81016849 -0.4530266 233.50517458 -0.45915213 239.20031995 -0.45400551 C242.47222842 -0.45147665 245.74372067 -0.45726312 249.01558113 -0.4768219 C265.44055988 -0.57008832 280.89098159 0.7841033 297 4 C298.36358724 4.25687805 299.72757198 4.51166325 301.09210205 4.76348495 C304.0075645 5.30659231 306.90974767 5.8930799 309.8125 6.5 C310.75673828 6.68691406 311.70097656 6.87382813 312.67382812 7.06640625 C318.51125883 8.276361 323.95651874 9.97111214 329.52856445 12.08544922 C332.53718757 13.1987854 335.58008031 14.02102422 338.6875 14.8125 C348.94925706 17.66361663 358.51985446 22.1939095 368 27 C369.15628906 27.57814453 369.15628906 27.57814453 370.3359375 28.16796875 C372.22395833 29.11197917 374.11197917 30.05598958 376 31 C376 31.66 376 32.32 376 33 C376.53625 33.0825 377.0725 33.165 377.625 33.25 C380.82904327 34.26180314 383.23377725 36.1166143 386 38 C386.99 38.33 387.98 38.66 389 39 C390.66666667 40.66666667 392.33333333 42.33333333 394 44 C394.75152344 44.433125 395.50304687 44.86625 396.27734375 45.3125 C399.63983431 47.39656875 402.32780007 49.91022924 405.1875 52.625 C408.79781992 56.21402746 408.79781992 56.21402746 413 59 C413 59.66 413 60.32 413 61 C413.66 61 414.32 61 415 61 C416.53851766 62.71951974 418.00731759 64.50187497 419.4375 66.3125 C422.43178731 70.15470832 422.43178731 70.15470832 425.78515625 73.66796875 C427 75 427 75 427 78 C427.5775 78.226875 428.155 78.45375 428.75 78.6875 C432.31203387 80.76535309 434.42851508 83.5522382 435.9375 87.375 C436.96808827 90.2262802 436.96808827 90.2262802 439.31640625 93.1796875 C441.9830147 96.8556847 444.0259734 100.66928507 446 104.75 C446.51590698 105.80151245 446.51590698 105.80151245 447.04223633 106.87426758 C448.03715153 108.91198659 449.02117922 110.95450889 450 113 C450.71736328 114.49853516 450.71736328 114.49853516 451.44921875 116.02734375 C459.27042134 132.82935942 464.11493056 149.85505819 467.125 168.0625 C467.31826874 169.21975586 467.31826874 169.21975586 467.51544189 170.40039062 C473.7075258 207.6432333 473.90820265 245.10413546 467.44628906 282.37133789 C466.88899253 285.65383884 466.46597262 288.94536712 466.0625 292.25 C464.4492253 304.51839135 461.99559461 316.47829217 458.90234375 328.453125 C458.20529825 331.1930268 457.57066623 333.92002127 457 336.6875 C454.93153336 346.12819391 451.60794553 355.26049015 448.4375 364.375 C448.14464111 365.21909424 447.85178223 366.06318848 447.55004883 366.93286133 C445.07672173 373.97093695 442.15103099 380.73841266 439 387.5 C437.40102054 390.9336807 435.83174666 394.35353129 434.4375 397.875 C433.01458471 400.96829412 431.38954231 403.38236992 429.28125 406.03125 C427.82479505 408.14554418 427.82479505 408.14554418 426.578125 411.328125 C425.05179126 414.87949557 423.30356538 417.98072391 421.25 421.25 C420.89856934 421.81009766 420.54713867 422.37019531 420.18505859 422.94726562 C419.12591609 424.63311119 418.06300147 426.31658503 417 428 C416.14535156 429.39992188 416.14535156 429.39992188 415.2734375 430.828125 C408.86624286 441.21324618 401.4279762 450.63277797 393.16015625 459.5859375 C390.92632168 462.08233852 388.86801079 464.66802881 386.8125 467.3125 C383.81011514 471.12666287 380.83062542 474.03997127 377 477 C376.38125 477.61875 375.7625 478.2375 375.125 478.875 C373.09486842 480.90513158 371.0133769 482.8346912 368.875 484.75 C368.19179688 485.36359375 367.50859375 485.9771875 366.8046875 486.609375 C365 488 365 488 363 488 C362.76925781 488.58394531 362.53851562 489.16789062 362.30078125 489.76953125 C360.66319147 492.57753054 358.85007575 493.82798517 356.1875 495.6875 C355.21167969 496.37457031 354.23585938 497.06164062 353.23046875 497.76953125 C352.16441406 498.50558594 351.09835937 499.24164062 350 500 C348.82912118 500.81596747 347.65855383 501.63238204 346.48828125 502.44921875 C334.20792204 511 334.20792204 511 331 511 C331 511.66 331 512.32 331 513 C327.37931299 514.9631014 323.75326533 516.91593082 320.12304688 518.86132812 C318.65219474 519.65020282 317.18219947 520.44067646 315.71289062 521.23242188 C307.13687622 525.84703405 298.63720277 530.40147346 289.56640625 533.984375 C287.10773927 534.95736345 284.71455597 536.02079588 282.3125 537.125 C277.96206743 539.07063174 273.54632461 540.58148998 269 542 C267.49759766 542.47953125 267.49759766 542.47953125 265.96484375 542.96875 C258.69937717 545.25490397 251.41518731 547.26342218 244 549 C243.02401855 549.23203125 243.02401855 549.23203125 242.02832031 549.46875 C236.70217378 550.7283283 231.3613773 551.90002655 226 553 C224.98413818 553.20906982 224.98413818 553.20906982 223.94775391 553.42236328 C188.10176132 560.51770692 150.88729857 559.42464192 114.55074144 559.31061469 C107.37032091 559.2886943 100.18991752 559.28462202 93.0094683 559.2812262 C80.21363882 559.27472698 67.41786807 559.25494752 54.62207031 559.22631836 C42.22265915 559.19860564 29.82326418 559.17745742 17.42382812 559.16479492 C16.65420577 559.16400675 15.88458342 559.16321858 15.09163918 559.16240653 C11.22908079 559.15849024 7.36652228 559.1546994 3.50396371 559.15097082 C-28.33073388 559.12007926 -60.16535766 559.06719725 -92 559 C-91.38133349 554.99248524 -90.75392568 550.98638522 -90.125 546.98046875 C-89.95097656 545.85249878 -89.77695313 544.72452881 -89.59765625 543.56237793 C-88.48078327 536.4823857 -87.00013075 529.76000953 -85.00390625 522.87890625 C-83.39390045 517.02591352 -82.48120357 511.00609603 -81.48242188 505.0246582 C-80.70481246 500.47038677 -79.78434557 496.0455396 -78.52734375 491.59765625 C-76.85821744 485.68701618 -75.72706692 479.72574618 -74.625 473.6875 C-73.06324334 465.33034542 -71.38024297 457.02692579 -69.4375 448.75 C-67.4704391 440.36628244 -65.86256047 431.95709058 -64.37866211 423.47558594 C-63.44830263 418.23303155 -62.30045298 413.18259917 -60.77734375 408.078125 C-59.38500754 402.56475347 -58.52965974 396.94074073 -57.55737305 391.34057617 C-56.34059044 384.48620875 -54.69113258 377.91296211 -52.79296875 371.21484375 C-52.08431451 368.34182682 -51.75813669 365.81777984 -51.625 362.875 C-51.31243604 357.05283398 -49.60049275 351.69093772 -47.9609375 346.1328125 C-47.67758545 345.15771729 -47.3942334 344.18262207 -47.10229492 343.17797852 C-46.40594265 340.78399269 -45.70506143 338.39143248 -45 336 C-27.91023467 335.97662172 -10.82047435 335.95899661 6.26930332 335.94818783 C14.20468748 335.94303535 22.14006168 335.93601262 30.07543945 335.92456055 C36.99330319 335.91458169 43.91115972 335.90813895 50.82903045 335.90591151 C54.49070531 335.90460984 58.15235955 335.90155843 61.81402779 335.89426994 C65.90540601 335.88619246 69.99674859 335.88601093 74.08813477 335.88647461 C75.29726532 335.88287933 76.50639587 335.87928406 77.75216675 335.87557983 C92.34022038 335.89348025 92.34022038 335.89348025 97 339 C97 339.66 97 340.32 97 341 C97.7425 341.165 98.485 341.33 99.25 341.5 C103.98691462 344.08377161 105.35324808 349.05974425 107 354 C107.52025339 360.25720796 106.59647799 366.05028842 105.1875 372.125 C104.81822054 373.78888739 104.44974115 375.45295254 104.08203125 377.1171875 C103.89850098 377.93670898 103.7149707 378.75623047 103.52587891 379.60058594 C102.49947889 384.28371469 101.61626932 388.99539953 100.7109375 393.703125 C100 397 100 397 99.05712891 400.14746094 C97.89351712 404.38806001 97.10255162 408.60559824 96.375 412.9375 C96.2409375 413.71673828 96.106875 414.49597656 95.96875 415.29882812 C95.6424032 417.19863271 95.32071377 419.09923637 95 421 C103.12968344 420.91460908 111.25917316 420.8193735 119.3885994 420.71247292 C123.16576928 420.66309384 126.94291871 420.61677351 130.72021484 420.578125 C160.86147464 420.42472401 160.86147464 420.42472401 190.56640625 415.78125 C192.52123983 415.3364642 194.48518471 414.9224358 196.46484375 414.60595703 C203.35538724 413.50185968 209.45113461 411.5792742 215.875 408.875 C216.83172607 408.47756592 217.78845215 408.08013184 218.77416992 407.6706543 C226.3641389 404.4378065 233.17978625 400.65964969 240 396 C240.79019531 395.49984375 241.58039063 394.9996875 242.39453125 394.484375 C249.69925234 389.82777521 256.6581278 384.43362881 262.703125 378.22265625 C265 376 265 376 267 376 C267 375.01 267 374.02 267 373 C267.66 373 268.32 373 269 373 C269.33 372.01 269.66 371.02 270 370 C270.99 369.34 271.98 368.68 273 368 C273.515625 367.13375 274.03125 366.2675 274.5625 365.375 C275.2740625 364.199375 275.2740625 364.199375 276 363 C276.66 363 277.32 363 278 363 C278.26296875 362.28070313 278.5259375 361.56140625 278.796875 360.8203125 C280.03401815 357.92025615 281.50984417 355.50091082 283.25 352.875 C286.79822984 347.39070285 289.96172726 341.77950764 293 336 C293.63035156 334.85337891 293.63035156 334.85337891 294.2734375 333.68359375 C298.45462832 325.81390021 301.28723548 317.46124171 304 309 C304.26490234 308.17983398 304.52980469 307.35966797 304.80273438 306.51464844 C316.93676683 268.10000573 319.4833629 216.80193081 302.35498047 179.57348633 C298.89694086 173.00570335 294.34051427 167.06067852 289.375 161.5625 C288.66085937 160.75941406 287.94671875 159.95632812 287.2109375 159.12890625 C285.05085333 156.88906526 285.05085333 156.88906526 282.2265625 155.33984375 C281.49179687 154.89769531 280.75703125 154.45554688 280 154 C280 153.34 280 152.68 280 152 C278.95199219 151.59587891 278.95199219 151.59587891 277.8828125 151.18359375 C274.81603098 149.924468 271.86025685 148.50378494 268.875 147.0625 C251.15470138 138.89765389 232.89871572 138.70387552 213.75390625 138.8046875 C211.64542272 138.80842638 209.53693744 138.81126921 207.42845154 138.81326294 C201.92946415 138.82083056 196.43058558 138.84041851 190.93164062 138.8626709 C185.30014517 138.88327891 179.66863182 138.89229636 174.03710938 138.90234375 C163.02469226 138.92367213 152.01235525 138.95772314 141 139 C141.78826172 139.60392578 142.57652344 140.20785156 143.38867188 140.83007812 C147.61910686 144.34542089 148.82859215 147.54874683 149.46875 152.96875 C149.50263897 154.47882237 149.51169266 155.98959267 149.5 157.5 C149.49790527 158.315896 149.49581055 159.13179199 149.49365234 159.97241211 C149.2630114 169.29752473 147.07327144 178.1689804 144.68603516 187.14672852 C143.66280428 191.40242222 142.85839587 195.70802064 142 200 C89.53 200 37.06 200 -17 200 C-15.68 193.4 -14.36 186.8 -13 180 C-12.2448733 175.73654371 -12.2448733 175.73654371 -11.4921875 171.47265625 C-10.95240329 168.76088318 -10.26810714 166.11080539 -9.5625 163.4375 C-8.25306286 158.38307263 -7.36551534 153.33950309 -6.5625 148.1875 C-5.47411045 141.24077946 -3.87445164 134.60182844 -1.96484375 127.828125 C-0.91236867 123.65231294 -0.20874429 119.50317846 0.4375 115.25 C1.54998527 107.94454902 3.26281469 100.94228444 5.23413086 93.82519531 C6.78387508 88.12382657 7.69408699 82.52084086 8.40625 76.65234375 C9.13200045 72.18802356 10.29055996 67.91631131 11.5 63.5625 C13.44289455 56.55944764 14.66367406 49.86680386 15.4609375 42.63671875 C16.05255973 38.64541223 17.0572356 34.92643831 18.1875 31.0625 C19.93764591 24.77639541 21.08970221 20.13744252 18.02734375 14.07421875 C17.0421934 12.36874341 16.02301969 10.6830324 15 9 C15 8.01 15 7.02 15 6 C13.824375 5.7834375 13.824375 5.7834375 12.625 5.5625 C10 5 10 5 8 4 C8 3.34 8 2.68 8 2 C5.36 1.67 2.72 1.34 0 1 C0 0.67 0 0.34 0 0 Z " fill="#BD254F" transform="translate(270,75)"/>
<path d="M0 0 C-0.14095064 1.6254308 -0.28792087 3.25034051 -0.4375 4.875 C-0.55931641 6.23238281 -0.55931641 6.23238281 -0.68359375 7.6171875 C-1 10 -1 10 -2 12 C-2.32076941 13.95377733 -2.60685499 15.91330758 -2.875 17.875 C-3.52757634 22.28351574 -4.31813293 26.56162741 -5.4375 30.875 C-7.21823274 37.85547236 -8.58717409 44.93587044 -10 52 C114.41 52 238.82 52 367 52 C370.46064803 66.99614147 370.46064803 66.99614147 370.43359375 74.796875 C370.44390373 76.10029846 370.44390373 76.10029846 370.454422 77.43005371 C370.46796242 80.20375065 370.45564105 82.97634096 370.4375 85.75 C370.43512329 86.70032104 370.43274658 87.65064209 370.43029785 88.62976074 C370.37115414 103.74066139 369.46027514 118.23516936 366 133 C365.82388184 133.76103027 365.64776367 134.52206055 365.46630859 135.30615234 C364.4492351 139.58285516 363.26980529 143.7904354 362 148 C361.75507812 148.90363281 361.51015625 149.80726563 361.2578125 150.73828125 C359.73476328 156.24008263 357.62868079 161.30025889 355.18359375 166.45703125 C354.03199641 168.93125523 353.01356052 171.4660987 352 174 C223.96 174 95.92 174 -36 174 C-36 175.98 -36 177.96 -36 180 C-36.37242774 181.90968266 -36.81229395 183.80723827 -37.3125 185.6875 C-37.72435547 187.26917969 -37.72435547 187.26917969 -38.14453125 188.8828125 C-38.66482783 190.77868769 -39.19997273 192.67067777 -39.76171875 194.5546875 C-41.78161359 201.41591758 -42.92212101 208.29116359 -43.91015625 215.36352539 C-44.50978527 219.5128049 -45.19243119 223.1676438 -47 227 C-49.26953125 226.84375 -49.26953125 226.84375 -52 226 C-53.94921875 223.53125 -53.94921875 223.53125 -55.6875 220.5 C-57.69964835 216.5818766 -57.69964835 216.5818766 -61 214 C-63.0095568 211.06295544 -64 209.60777515 -64 206 C-64.99 205.67 -65.98 205.34 -67 205 C-68.63857625 202.92663907 -70.14241806 200.86775068 -71.625 198.6875 C-72.50888012 197.41299552 -73.39432972 196.13957822 -74.28125 194.8671875 C-74.72984375 194.22233398 -75.1784375 193.57748047 -75.640625 192.91308594 C-76.94295943 191.08027476 -78.2843837 189.28899307 -79.65625 187.5078125 C-80.07181152 186.96809814 -80.48737305 186.42838379 -80.91552734 185.87231445 C-82.06724136 184.3869893 -83.22487434 182.90625928 -84.3828125 181.42578125 C-86 179 -86 179 -86 176 C-86.66 176 -87.32 176 -88 176 C-89.89735251 173.63944406 -91.68092809 171.2744489 -93.4375 168.8125 C-93.92798828 168.13896484 -94.41847656 167.46542969 -94.92382812 166.77148438 C-102 156.98325742 -102 156.98325742 -102 154 C-102.8971875 153.6596875 -102.8971875 153.6596875 -103.8125 153.3125 C-106.65048854 151.60970688 -107.34192617 149.88627666 -109 147 C-110.82732887 144.66872169 -112.69025504 142.37165745 -114.57421875 140.0859375 C-116 138 -116 138 -116 135 C-116.66 135 -117.32 135 -118 135 C-118.495 133.02 -118.495 133.02 -119 131 C-119.66 131 -120.32 131 -121 131 C-122.48012993 129.04960476 -123.84315063 127.10364842 -125.1875 125.0625 C-131.52525624 115.57853602 -131.52525624 115.57853602 -139 107 C-140.14894799 103.74579403 -140.15301439 101.25496983 -139 98 C-135.59710388 94.87977257 -131.76519754 92.57309845 -127.84326172 90.17675781 C-124.87557874 88.28215755 -122.1363306 86.11730038 -119.375 83.9375 C-115.22026983 80.70513502 -111.04568611 77.50435662 -106.8125 74.375 C-105.49185547 73.39660156 -105.49185547 73.39660156 -104.14453125 72.3984375 C-102 71 -102 71 -100 71 C-100 70.34 -100 69.68 -100 69 C-97 67 -97 67 -94 67 C-94 66.34 -94 65.68 -94 65 C-92.05859375 63.484375 -92.05859375 63.484375 -89.4375 61.75 C-86.22956125 59.57673446 -83.19652995 57.4002255 -80.3125 54.8125 C-78.10600599 52.85521002 -75.9569966 51.30203898 -73.375 49.875 C-70.25138011 48.13965562 -67.72422939 46.2940879 -65 44 C-60.22222222 40 -60.22222222 40 -58 40 C-58 39.34 -58 38.68 -58 38 C-53.61538462 35 -53.61538462 35 -51 35 C-51 34.34 -51 33.68 -51 33 C-49.171875 31.59765625 -49.171875 31.59765625 -46.75 30.0625 C-44.36876419 28.5411549 -42.05842444 27.04549961 -39.828125 25.30859375 C-38 24 -38 24 -36 24 C-36 23.34 -36 22.68 -36 22 C-34.3603125 21.1028125 -34.3603125 21.1028125 -32.6875 20.1875 C-30.05781761 18.69770009 -28.08740271 17.19726601 -26 15 C-25.34 15 -24.68 15 -24 15 C-24 14.34 -24 13.68 -24 13 C-22.68 12.67 -21.36 12.34 -20 12 C-20 11.34 -20 10.68 -20 10 C-18.20703125 8.6328125 -18.20703125 8.6328125 -15.8125 7.125 C-13.09787554 5.39442691 -10.73327826 3.76429242 -8.3125 1.625 C-5.38655464 -0.43106971 -3.49888391 -0.32547757 0 0 Z " fill="#00204F" transform="translate(209,231)"/>
</svg>
